<?xml version="1.0" encoding="utf-8"?>
<!-- Generator: Adobe Illustrator 16.0.4, SVG Export Plug-In . SVG Version: 6.00 Build 0)  -->
<!DOCTYPE svg PUBLIC "-//W3C//DTD SVG 1.1//EN" "http://www.w3.org/Graphics/SVG/1.1/DTD/svg11.dtd">
<svg version="1.1" id="Layer_1" xmlns="http://www.w3.org/2000/svg" xmlns:xlink="http://www.w3.org/1999/xlink" x="0px" y="0px"
	 width="595.279px" height="164.34px" viewBox="0 339 595.279 164.34" enable-background="new 0 339 595.279 164.34"
	 xml:space="preserve">
<path d="M164.341,421.17c0,45.381-36.789,82.17-82.17,82.17C36.789,503.34,0,466.551,0,421.17C0,375.788,36.789,339,82.17,339
	C127.552,339,164.341,375.788,164.341,421.17z M23.428,392.224h34.761v40.203c0,5.609-1.444,9.979-4.33,13.113
	c-1.567,1.65-3.402,2.825-5.505,3.525c-2.103,0.701-4.062,1.051-5.875,1.051c-2.969,0-5.588-0.288-7.855-0.865
	c-2.269-0.576-4.969-1.772-8.103-3.588l-6.062,13.607c3.711,2.227,7.422,3.773,11.133,4.639c3.711,0.866,7.546,1.299,11.504,1.299
	c1.237,0,2.803-0.083,4.701-0.247c1.896-0.167,3.916-0.537,6.062-1.113c2.144-0.576,4.349-1.442,6.618-2.598
	c2.267-1.154,4.392-2.722,6.37-4.701c3.134-3.216,5.299-6.885,6.495-11.009c1.194-4.124,1.794-8.536,1.794-13.237v-55.171H29.46
	L23.428,392.224z M130.061,463.724h17.812l-27.834-86.592h-16.946l-27.957,86.592h16.947l5.938-19.174h25.854L130.061,463.724z
	 M110.639,401.996h1.113l8.783,28.946h-18.557L110.639,401.996z"/>
</svg>
