<?xml version="1.0" encoding="utf-8"?>
<!-- Generator: Adobe Illustrator 16.0.4, SVG Export Plug-In . SVG Version: 6.00 Build 0)  -->
<svg version="1.2" baseProfile="tiny" id="Layer_1" xmlns="http://www.w3.org/2000/svg" xmlns:xlink="http://www.w3.org/1999/xlink"
	 x="0px" y="0px" width="165.979px" height="164.34px" viewBox="0 338.775 165.979 164.34" xml:space="preserve">
<circle cx="83.809" cy="420.945" r="82.17"/>
<g>
	<path fill="#FFFFFF" d="M31.098,376.907h45.677v55.171c0,4.701-0.6,9.113-1.794,13.237c-1.196,4.124-3.361,7.793-6.495,11.009
		c-1.979,1.979-4.103,3.547-6.37,4.701c-2.269,1.155-4.474,2.021-6.618,2.598c-2.146,0.576-4.165,0.946-6.062,1.113
		c-1.898,0.164-3.463,0.247-4.701,0.247c-3.958,0-7.793-0.433-11.504-1.299c-3.711-0.865-7.422-2.412-11.133-4.639l6.062-13.607
		c3.133,1.815,5.833,3.012,8.103,3.588c2.268,0.577,4.887,0.865,7.855,0.865c1.813,0,3.772-0.35,5.875-1.051
		c2.103-0.7,3.938-1.875,5.505-3.525c2.886-3.134,4.33-7.504,4.33-13.113v-40.203H25.067L31.098,376.907z"/>
	<path fill="#FFFFFF" d="M125.514,444.325H99.66l-5.938,19.174H76.775l27.957-86.592h16.947l27.834,86.592h-17.813L125.514,444.325z
		 M103.618,430.718h18.556l-8.783-28.946h-1.112L103.618,430.718z"/>
</g>
</svg>
