<?xml version="1.0" encoding="utf-8"?>
<!-- Generator: Adobe Illustrator 16.0.4, SVG Export Plug-In . SVG Version: 6.00 Build 0)  -->
<!DOCTYPE svg PUBLIC "-//W3C//DTD SVG 1.1//EN" "http://www.w3.org/Graphics/SVG/1.1/DTD/svg11.dtd">
<svg version="1.1" id="Layer_1" xmlns="http://www.w3.org/2000/svg" xmlns:xlink="http://www.w3.org/1999/xlink" x="0px" y="0px"
	 width="595.279px" height="841.891px" viewBox="0 0 595.279 841.891" enable-background="new 0 0 595.279 841.891"
	 xml:space="preserve">
<path d="M278.541,422.787h-9.425c-1.418,0-2.599,1.182-2.599,2.599v18.118l-0.177,0.154c-5.552,4.677-12.567,7.252-19.749,7.252
	c-16.96,0-30.756-13.796-30.756-30.756c0-16.961,13.796-30.756,30.756-30.756c6.591,0,12.898,2.079,18.237,6.024
	c1.027,0.779,2.479,0.673,3.378-0.236l6.731-6.732c0.521-0.52,0.792-1.24,0.744-1.984c-0.023-0.732-0.378-1.417-0.968-1.89
	c-7.984-6.319-17.953-9.803-28.11-9.803c-25.017,0-45.379,20.351-45.379,45.354c0,25.04,20.362,45.379,45.379,45.379
	c12.909,0,25.275-5.552,33.897-15.236c0.413-0.473,0.649-1.099,0.649-1.736v-23.15c0-1.44-1.157-2.599-2.599-2.599 M593.863,378.945
	c-0.473-0.709-1.299-1.158-2.173-1.158h-10.276c-1.027,0-1.96,0.614-2.361,1.559l-28.938,67.134l-29.41-67.146
	c-0.425-0.945-1.358-1.536-2.386-1.536H508.02c-0.874,0-1.701,0.425-2.174,1.158c-0.472,0.732-0.566,1.654-0.2,2.48l35.669,81.32
	c0.402,0.944,1.335,1.559,2.362,1.559h12.992c1.04,0,1.973-0.626,2.386-1.571l35.032-81.343c0.354-0.803,0.26-1.736-0.236-2.48"/>
<path d="M459.074,379.334c-0.414-0.945-1.347-1.559-2.362-1.559H443.72c-1.04,0-1.973,0.626-2.386,1.571l-35.032,81.332
	c-0.354,0.803-0.26,1.736,0.213,2.457c0.473,0.731,1.299,1.181,2.173,1.181h10.276c1.016,0,1.96-0.626,2.362-1.571l28.937-67.158
	l29.41,67.158c0.425,0.945,1.358,1.56,2.386,1.56h10.299c0.874,0,1.701-0.449,2.174-1.181c0.472-0.732,0.555-1.654,0.2-2.48
	l-35.669-81.32L459.074,379.334z M365.199,434.552l0.555-0.26c10.253-4.961,16.867-15.473,16.867-26.776
	c0-16.394-13.347-29.74-29.729-29.74h-37.653c-1.417,0-2.599,1.181-2.599,2.599v81.331c0,1.453,1.182,2.622,2.599,2.622h9.449
	c1.417,0,2.598-1.181,2.598-2.599v-69.366h25.606c8.327,0,15.119,6.791,15.119,15.118c0,6.968-4.725,12.992-11.493,14.669
	c-1.228,0.308-2.444,0.473-3.626,0.473h-9.425c-0.98,0-1.89,0.544-2.315,1.417c-0.448,0.862-0.354,1.914,0.236,2.717l26.693,36.461
	c0.496,0.686,1.275,1.087,2.103,1.087h11.693c0.992,0,1.89-0.556,2.326-1.417c0.438-0.887,0.354-1.938-0.236-2.717l-18.779-25.63
	L365.199,434.552z M82.158,338.267C36.791,338.267,0,375.059,0,420.437c0,45.378,36.791,82.17,82.17,82.17
	c45.378,0,82.17-36.792,82.17-82.17c0-45.378-36.78-82.17-82.17-82.17"/>
<g>
	<path fill="#FFFFFF" d="M30.789,374.775h44.109v53.278c0,4.54-0.579,8.801-1.732,12.783c-1.156,3.982-3.246,7.524-6.272,10.631
		c-1.911,1.911-3.962,3.425-6.152,4.539c-2.19,1.117-4.32,1.953-6.39,2.509c-2.072,0.558-4.023,0.915-5.854,1.076
		c-1.833,0.158-3.344,0.238-4.539,0.238c-3.823,0-7.526-0.418-11.109-1.254c-3.584-0.837-7.168-2.33-10.751-4.479l5.853-13.142
		c3.026,1.753,5.634,2.908,7.825,3.466c2.189,0.557,4.719,0.836,7.586,0.836c1.75,0,3.643-0.338,5.674-1.016
		c2.03-0.676,3.802-1.811,5.316-3.404c2.786-3.026,4.18-7.247,4.18-12.664v-38.823H24.965L30.789,374.775z"/>
	<path fill="#FFFFFF" d="M121.965,439.88H96.998l-5.734,18.516H74.898l26.998-83.621h16.365l26.878,83.621h-17.202L121.965,439.88z
		 M100.82,426.739h17.919l-8.482-27.954h-1.074L100.82,426.739z"/>
</g>
</svg>
